<svg width="143" height="67" viewBox="0 0 143 67" fill="none" xmlns="http://www.w3.org/2000/svg">
<path d="M11.89 0.95752C21.68 0.95752 26.39 6.97752 26.39 14.6275C26.39 22.2775 21.83 28.6975 11.89 28.6975H0V0.95752H11.89ZM7.77 22.0775H11.89C16.88 22.0775 18.63 18.3575 18.63 14.5475C18.63 10.7375 16.69 7.49753 11.89 7.49753H7.77V22.0775Z" fill="#D9D9D9"/>
<path d="M56.31 0.997314V16.4873C56.35 24.6873 51.36 29.2873 43.23 29.2873C35.1 29.2873 30.15 24.8873 30.15 16.4073V0.987305H37.96V16.4073C37.96 20.7673 40.06 22.5873 43.23 22.5873C46.4 22.5873 48.5 20.6873 48.5 16.4873V0.997314H56.31Z" fill="#D9D9D9"/>
<path d="M87.22 28.6975H78.58L72.12 19.6975H69.39V28.6975H61.54V0.95752H75.09C82.18 0.95752 85.87 5.51752 85.87 10.5075C85.87 13.9175 84.68 16.8075 80 18.8675L87.21 28.2175V28.6975H87.22ZM69.39 7.21753V13.8775H75.18C77.24 13.8775 78.15 12.3275 78.15 10.6675C78.15 9.00753 77.16 7.21753 75.1 7.21753H69.39Z" fill="#D9D9D9"/>
<path d="M112.94 28.6975H90.75V0.95752H112.39V7.53752H98.48V11.4975H111.6V17.8775H98.48V22.0775H112.94V28.6975Z" fill="#D9D9D9"/>
<path d="M128.72 10.1075L131.34 5.11752L133.88 0.95752H142.32V1.39752L133.6 14.7475L142.91 28.3775V28.6975H134.39L131.81 24.8575L128.72 19.7075L125.59 24.9375L123.05 28.6975H114.53V28.3775L123.84 14.7475L115.12 1.39752V0.95752H123.56L126.14 5.19753L128.72 10.1075Z" fill="#D9D9D9"/>
<path d="M34.06 62.5373C30.93 65.6273 27.13 66.8573 22.92 66.8573C12.02 66.8573 7.77999 59.9973 7.73999 52.4773C7.69999 45.3473 12.5 37.7773 22.92 37.7773C26.92 37.7773 30.53 39.1673 33.66 42.2173L28.83 46.9673C26.85 45.0673 24.79 44.5473 22.93 44.5473C17.58 44.5473 15.48 48.9073 15.52 52.5073C15.56 56.1173 17.46 60.1973 22.93 60.1973C24.79 60.1973 27.49 59.4073 29.47 57.3873L34.07 62.5373H34.06Z" fill="#D9D9D9"/>
<path d="M62.95 66.1375H54.31L47.85 57.1375H45.12V66.1375H37.27V38.3975H50.82C57.91 38.3975 61.6 42.9575 61.6 47.9475C61.6 51.3575 60.41 54.2475 55.74 56.3075L62.95 65.6575V66.1375ZM45.12 44.6675V51.3275H50.91C52.97 51.3275 53.88 49.7775 53.88 48.1175C53.88 46.4575 52.89 44.6675 50.83 44.6675H45.12Z" fill="#D9D9D9"/>
<path d="M80.3499 66.8173C71.2799 66.8173 64.9399 61.5473 64.9399 52.2773C64.9399 43.0073 71.2799 37.7373 80.3499 37.7373C89.4199 37.7373 95.7699 43.0473 95.7699 52.2773C95.7699 61.5073 89.4699 66.8173 80.3499 66.8173ZM80.3499 44.4273C75.8699 44.4273 72.7799 47.6773 72.7799 52.2773C72.7799 56.8773 75.9099 60.1273 80.3499 60.1273C84.7899 60.1273 87.9199 56.8773 87.9199 52.2773C87.9199 47.6773 84.9499 44.4273 80.3499 44.4273Z" fill="#D9D9D9"/>
<path d="M123.03 49.6177L115.94 58.0177H114.55L107.61 49.6577V66.1477H99.84V38.4077H108.04L115.33 47.7977L122.62 38.4077H130.78V66.1477H123.01V49.6277L123.03 49.6177Z" fill="#D9D9D9"/>
</svg>
