<svg width="166" height="155" viewBox="0 0 166 155" fill="none" xmlns="http://www.w3.org/2000/svg">
<path d="M52.865 25.2875L17.605 60.5375C15.465 62.6775 15.465 66.1375 17.605 68.2675C19.745 70.4075 23.205 70.4075 25.335 68.2675L32.805 60.7975L60.285 33.3175C68.265 25.3375 81.265 24.8275 89.475 32.5675C98.005 40.6075 98.155 54.0975 89.925 62.3275L72.085 80.1675V95.6375L97.655 70.0675C110.025 57.6975 110.025 37.6475 97.655 25.2775C85.285 12.9075 65.235 12.9075 52.865 25.2775V25.2875Z" fill="black"/>
<path d="M112.655 129.197L147.605 94.2474C149.745 92.1074 149.745 88.6474 147.605 86.5174C145.465 84.3774 142.005 84.3774 139.875 86.5174L132.715 93.6774L105.235 121.157C97.2549 129.137 84.2549 129.647 76.0449 121.907C67.5149 113.867 67.3649 100.377 75.5949 92.1474L93.4349 74.3074V58.8374L67.8649 84.4074C55.4949 96.7774 55.4949 116.827 67.8649 129.197C80.2349 141.567 100.285 141.567 112.655 129.197Z" fill="black"/>
<path d="M62.5249 36.2273L29.0549 69.6873C31.8849 72.5173 36.4849 72.5173 39.3149 69.6873L67.4449 41.5573C71.0749 37.9273 76.9349 37.4473 80.8849 40.7173C85.4149 44.4673 85.6549 51.2273 81.5849 55.2873L64.5749 72.2973C61.7449 75.1273 61.7449 79.7273 64.5749 82.5573L86.7149 60.4173C93.3949 53.7373 93.3949 42.9073 86.7149 36.2273C80.0349 29.5473 69.2049 29.5473 62.5249 36.2273Z" fill="black"/>
<path d="M79.065 43.8776C77.835 42.6476 76.225 42.0376 74.625 42.0376C73.025 42.0376 71.405 42.6476 70.185 43.8776L35.765 78.2876C33.315 80.7376 33.315 84.7276 35.765 87.1776C38.215 89.6276 42.205 89.6276 44.655 87.1776L79.065 52.7676C81.515 50.3176 81.515 46.3276 79.065 43.8776Z" fill="black"/>
<path d="M79.065 52.7676L44.655 87.1776C42.205 89.6276 38.215 89.6276 35.765 87.1776C33.315 84.7276 33.315 80.7376 35.765 78.2876L70.175 43.8776C71.405 42.6476 73.005 42.0376 74.615 42.0376C76.225 42.0376 77.835 42.6476 79.055 43.8776C81.505 46.3276 81.505 50.3176 79.055 52.7676H79.065Z" fill="black"/>
<path d="M129.445 67.6276C128.255 66.4376 126.675 65.7876 125.005 65.7876C123.335 65.7876 121.745 66.4376 120.565 67.6276L86.1549 102.038C84.9649 103.228 84.3149 104.808 84.3149 106.478C84.3149 108.148 84.9649 109.738 86.1549 110.918C88.5349 113.298 92.6649 113.298 95.0449 110.918L129.455 76.5076C131.905 74.0576 131.905 70.0676 129.455 67.6176L129.445 67.6276Z" fill="black"/>
<path d="M129.445 76.5174L95.0349 110.927C92.6549 113.307 88.5249 113.307 86.1449 110.927C84.9549 109.737 84.3049 108.157 84.3049 106.487C84.3049 104.817 84.9549 103.227 86.1449 102.047L120.555 67.6374C121.745 66.4474 123.325 65.7974 124.995 65.7974C126.665 65.7974 128.255 66.4474 129.435 67.6374C131.885 70.0874 131.885 74.0774 129.435 76.5274L129.445 76.5174Z" fill="black"/>
<path d="M82.9851 112.748C79.7151 108.798 80.2051 102.938 83.8251 99.3076L100.625 82.5076C103.455 79.6776 103.455 75.0776 100.625 72.2476L78.4851 94.3876C71.8051 101.068 71.8051 111.898 78.4851 118.578C85.1651 125.258 95.9951 125.258 102.675 118.578L136.145 85.1076C133.315 82.2776 128.715 82.2776 125.885 85.1076L97.5451 113.448C93.4851 117.508 86.7251 117.278 82.9751 112.748H82.9851Z" fill="black"/>
</svg>
