<svg width="134" height="123" viewBox="0 0 134 123" fill="none" xmlns="http://www.w3.org/2000/svg">
<path d="M37.3098 9.28018L2.04982 44.5302C-0.0901759 46.6702 -0.0901759 50.1302 2.04982 52.2602C4.18982 54.4002 7.64982 54.4002 9.77982 52.2602L17.2498 44.7902L44.7298 17.3102C52.7098 9.33017 65.7098 8.82018 73.9198 16.5602C82.4498 24.6002 82.5998 38.0902 74.3698 46.3202L56.5298 64.1602V79.6302L82.0998 54.0602C94.4698 41.6902 94.4698 21.6402 82.0998 9.27018C69.7298 -3.09982 49.6798 -3.09982 37.3098 9.27018V9.28018Z" fill="#583B8F"/>
<path d="M97.0997 113.19L132.05 78.2401C134.19 76.1001 134.19 72.6401 132.05 70.5101C129.91 68.3701 126.45 68.3701 124.32 70.5101L117.16 77.6701L89.6797 105.15C81.6997 113.13 68.6997 113.64 60.4897 105.9C51.9597 97.8601 51.8097 84.3701 60.0397 76.1401L77.8797 58.3001V42.8301L52.3097 68.4001C39.9397 80.7701 39.9397 100.82 52.3097 113.19C64.6797 125.56 84.7297 125.56 97.0997 113.19Z" fill="#583B8F"/>
<path d="M46.9698 20.22L13.4998 53.68C16.3298 56.51 20.9298 56.51 23.7598 53.68L51.8898 25.55C55.5198 21.92 61.3798 21.44 65.3298 24.71C69.8598 28.46 70.0998 35.22 66.0298 39.28L49.0198 56.29C46.1898 59.12 46.1898 63.72 49.0198 66.55L71.1598 44.41C77.8398 37.73 77.8398 26.9 71.1598 20.22C64.4798 13.54 53.6498 13.54 46.9698 20.22Z" fill="#F8BE00"/>
<path d="M63.5098 27.8703C62.2798 26.6403 60.6698 26.0303 59.0698 26.0303C57.4698 26.0303 55.8498 26.6403 54.6298 27.8703L20.2098 62.2803C17.7598 64.7303 17.7598 68.7203 20.2098 71.1703C22.6598 73.6203 26.6498 73.6203 29.0998 71.1703L63.5098 36.7603C65.9598 34.3103 65.9598 30.3203 63.5098 27.8703Z" fill="#D9D9D9"/>
<path d="M63.5098 36.7603L29.0998 71.1703C26.6498 73.6203 22.6598 73.6203 20.2098 71.1703C17.7598 68.7203 17.7598 64.7303 20.2098 62.2803L54.6198 27.8703C55.8498 26.6403 57.4498 26.0303 59.0598 26.0303C60.6698 26.0303 62.2798 26.6403 63.4998 27.8703C65.9498 30.3203 65.9498 34.3103 63.4998 36.7603H63.5098Z" fill="#D9D9D9"/>
<path d="M113.89 51.6203C112.7 50.4303 111.12 49.7803 109.45 49.7803C107.78 49.7803 106.19 50.4303 105.01 51.6203L70.5998 86.0303C69.4098 87.2203 68.7598 88.8003 68.7598 90.4703C68.7598 92.1403 69.4098 93.7303 70.5998 94.9103C72.9798 97.2903 77.1098 97.2903 79.4898 94.9103L113.9 60.5003C116.35 58.0503 116.35 54.0603 113.9 51.6103L113.89 51.6203Z" fill="#D9D9D9"/>
<path d="M113.89 60.51L79.4798 94.92C77.0998 97.3 72.9698 97.3 70.5898 94.92C69.3998 93.73 68.7498 92.15 68.7498 90.48C68.7498 88.81 69.3998 87.22 70.5898 86.04L105 51.63C106.19 50.44 107.77 49.79 109.44 49.79C111.11 49.79 112.7 50.44 113.88 51.63C116.33 54.08 116.33 58.07 113.88 60.52L113.89 60.51Z" fill="#D9D9D9"/>
<path d="M67.4299 96.7402C64.1599 92.7902 64.6499 86.9302 68.2699 83.3002L85.0699 66.5002C87.8999 63.6702 87.8999 59.0702 85.0699 56.2402L62.9299 78.3802C56.2499 85.0602 56.2499 95.8902 62.9299 102.57C69.6099 109.25 80.4399 109.25 87.1199 102.57L120.59 69.1002C117.76 66.2702 113.16 66.2702 110.33 69.1002L81.9899 97.4402C77.9299 101.5 71.1699 101.27 67.4199 96.7402H67.4299Z" fill="#F8BE00"/>
</svg>
