<svg width="337" height="47" viewBox="0 0 337 47" fill="none" xmlns="http://www.w3.org/2000/svg">
<path d="M13.8669 3.49352L0.603725 16.7529C-0.201242 17.5579 -0.201242 18.8594 0.603725 19.6606C1.40869 20.4655 2.71018 20.4655 3.51139 19.6606L6.32125 16.8507L16.6579 6.51403C19.6596 3.51233 24.5496 3.32049 27.6378 6.23191C30.8464 9.25618 30.9028 14.3305 27.8071 17.4262L21.0965 24.1368V29.9559L30.7148 20.3376C35.3678 15.6846 35.3678 8.14277 30.7148 3.48976C26.0618 -1.16325 18.5199 -1.16325 13.8669 3.48976V3.49352Z" fill="#7248C3"/>
<path d="M36.3572 42.5799L49.5037 29.4333C50.3087 28.6284 50.3087 27.3269 49.5037 26.5257C48.6988 25.7207 47.3973 25.7207 46.5961 26.5257L43.9028 29.2189L33.5661 39.5556C30.5644 42.5573 25.6744 42.7492 22.5862 39.8377C19.3776 36.8135 19.3212 31.7392 22.417 28.6434L29.1275 21.9329V16.1138L19.5093 25.732C14.8563 30.385 14.8563 37.9269 19.5093 42.5799C24.1623 47.2329 31.7042 47.2329 36.3572 42.5799Z" fill="#7248C3"/>
<path d="M17.5005 7.60816L4.91064 20.1942C5.97516 21.2587 7.70546 21.2587 8.76997 20.1942L19.3512 9.61305C20.7166 8.24762 22.9208 8.06707 24.4066 9.29709C26.1106 10.7077 26.2009 13.2505 24.67 14.7776L18.2716 21.176C17.2071 22.2405 17.2071 23.9708 18.2716 25.0353L26.5996 16.7073C29.1123 14.1946 29.1123 10.1209 26.5996 7.60816C24.0869 5.09546 20.0132 5.09546 17.5005 7.60816Z" fill="#F8BE00"/>
<path d="M23.7221 10.4861C23.2595 10.0234 22.6539 9.79395 22.052 9.79395C21.4502 9.79395 20.8408 10.0234 20.3819 10.4861L7.43471 23.4295C6.51314 24.3511 6.51314 25.8519 7.43471 26.7735C8.35629 27.6951 9.85714 27.6951 10.7787 26.7735L23.7221 13.8301C24.6437 12.9085 24.6437 11.4076 23.7221 10.4861Z" fill="#D9D9D9"/>
<path d="M23.7221 13.8301L10.7787 26.7735C9.85714 27.6951 8.35629 27.6951 7.43471 26.7735C6.51314 25.8519 6.51314 24.3511 7.43471 23.4295L20.3781 10.4861C20.8408 10.0234 21.4426 9.79395 22.0483 9.79395C22.6539 9.79395 23.2595 10.0234 23.7184 10.4861C24.6399 11.4076 24.6399 12.9085 23.7184 13.8301H23.7221Z" fill="#D9D9D9"/>
<path d="M42.6727 19.4201C42.2251 18.9725 41.6307 18.728 41.0026 18.728C40.3744 18.728 39.7763 18.9725 39.3324 19.4201L26.389 32.3636C25.9414 32.8112 25.6969 33.4055 25.6969 34.0337C25.6969 34.6619 25.9414 35.2599 26.389 35.7038C27.2843 36.5991 28.8378 36.5991 29.733 35.7038L42.6764 22.7604C43.598 21.8388 43.598 20.338 42.6764 19.4164L42.6727 19.4201Z" fill="#D9D9D9"/>
<path d="M42.6727 22.7633L29.7292 35.7067C28.834 36.602 27.2805 36.602 26.3852 35.7067C25.9376 35.2591 25.6931 34.6648 25.6931 34.0366C25.6931 33.4084 25.9376 32.8104 26.3852 32.3665L39.3287 19.4231C39.7763 18.9755 40.3706 18.731 40.9988 18.731C41.627 18.731 42.225 18.9755 42.6689 19.4231C43.5905 20.3447 43.5905 21.8455 42.6689 22.7671L42.6727 22.7633Z" fill="#D9D9D9"/>
<path d="M25.1966 36.3924C23.9666 34.9066 24.1509 32.7023 25.5126 31.3369L31.8319 25.0175C32.8964 23.953 32.8964 22.2227 31.8319 21.1582L23.5039 29.4862C20.9912 31.9989 20.9912 36.0727 23.5039 38.5854C26.0166 41.0981 30.0903 41.0981 32.6031 38.5854L45.1929 25.9955C44.1284 24.931 42.3981 24.931 41.3336 25.9955L30.6734 36.6557C29.1462 38.1829 26.6034 38.0964 25.1928 36.3924H25.1966Z" fill="#F8BE00"/>
<path d="M73.9974 8.47461C83.7874 8.47461 88.4974 14.4946 88.4974 22.1446C88.4974 29.7946 83.9374 36.2146 73.9974 36.2146H62.1074V8.47461H73.9974ZM69.8774 29.5946H73.9974C78.9874 29.5946 80.7374 25.8746 80.7374 22.0646C80.7374 18.2546 78.7974 15.0146 73.9974 15.0146H69.8774V29.5946Z" fill="#D9D9D9"/>
<path d="M118.417 8.5144V24.0044C118.457 32.2044 113.467 36.8044 105.337 36.8044C97.2074 36.8044 92.2574 32.4044 92.2574 23.9244V8.50439H100.067V23.9244C100.067 28.2844 102.167 30.1044 105.337 30.1044C108.507 30.1044 110.607 28.2044 110.607 24.0044V8.5144H118.417Z" fill="#D9D9D9"/>
<path d="M149.327 36.2146H140.687L134.227 27.2146H131.497V36.2146H123.647V8.47461H137.197C144.287 8.47461 147.977 13.0346 147.977 18.0246C147.977 21.4346 146.787 24.3246 142.107 26.3846L149.317 35.7346V36.2146H149.327ZM131.497 14.7346V21.3946H137.287C139.347 21.3946 140.257 19.8446 140.257 18.1846C140.257 16.5246 139.267 14.7346 137.207 14.7346H131.497Z" fill="#D9D9D9"/>
<path d="M175.047 36.2146H152.857V8.47461H174.497V15.0546H160.587V19.0146H173.707V25.3946H160.587V29.5946H175.047V36.2146Z" fill="#D9D9D9"/>
<path d="M190.827 17.6246L193.447 12.6346L195.987 8.47461H204.427V8.91461L195.707 22.2646L205.017 35.8946V36.2146H196.497L193.917 32.3746L190.827 27.2246L187.697 32.4546L185.157 36.2146H176.637V35.8946L185.947 22.2646L177.227 8.91461V8.47461H185.667L188.247 12.7146L190.827 17.6246Z" fill="#D9D9D9"/>
<path d="M239.338 33.2746C236.208 36.3646 232.408 37.5947 228.198 37.5947C217.298 37.5947 213.058 30.7346 213.018 23.2146C212.978 16.0846 217.778 8.51465 228.198 8.51465C232.198 8.51465 235.808 9.90465 238.938 12.9547L234.108 17.7047C232.128 15.8047 230.068 15.2846 228.208 15.2846C222.858 15.2846 220.758 19.6446 220.798 23.2446C220.838 26.8546 222.738 30.9346 228.208 30.9346C230.068 30.9346 232.768 30.1446 234.748 28.1246L239.348 33.2746H239.338Z" fill="#D9D9D9"/>
<path d="M268.228 36.8748H259.588L253.128 27.8748H250.398V36.8748H242.548V9.13477H256.098C263.188 9.13477 266.878 13.6948 266.878 18.6848C266.878 22.0948 265.688 24.9848 261.018 27.0448L268.228 36.3948V36.8748ZM250.398 15.4048V22.0648H256.188C258.248 22.0648 259.158 20.5148 259.158 18.8548C259.158 17.1948 258.168 15.4048 256.108 15.4048H250.398Z" fill="#D9D9D9"/>
<path d="M285.628 37.5546C276.558 37.5546 270.218 32.2846 270.218 23.0146C270.218 13.7446 276.558 8.47461 285.628 8.47461C294.698 8.47461 301.048 13.7846 301.048 23.0146C301.048 32.2446 294.748 37.5546 285.628 37.5546ZM285.628 15.1646C281.148 15.1646 278.058 18.4146 278.058 23.0146C278.058 27.6146 281.188 30.8646 285.628 30.8646C290.068 30.8646 293.198 27.6146 293.198 23.0146C293.198 18.4146 290.228 15.1646 285.628 15.1646Z" fill="#D9D9D9"/>
<path d="M328.308 20.355L321.218 28.755H319.828L312.888 20.395V36.885H305.118V9.14502H313.318L320.608 18.535L327.898 9.14502H336.058V36.885H328.288V20.365L328.308 20.355Z" fill="#D9D9D9"/>
</svg>
