<svg width="143" height="207" viewBox="0 0 143 207" fill="none" xmlns="http://www.w3.org/2000/svg">
<path d="M39.3099 9.2875L4.04995 44.5375C1.90995 46.6775 1.90995 50.1375 4.04995 52.2675C6.18995 54.4075 9.64995 54.4075 11.7799 52.2675L19.2499 44.7975L46.7299 17.3175C54.7099 9.3375 67.7099 8.8275 75.9199 16.5675C84.4499 24.6075 84.5999 38.0975 76.3699 46.3275L58.5299 64.1675V79.6375L84.0999 54.0675C96.4699 41.6975 96.4699 21.6475 84.0999 9.2775C71.7299 -3.0925 51.6799 -3.0925 39.3099 9.2775V9.2875Z" fill="#583B8F"/>
<path d="M99.1 113.197L134.05 78.2474C136.19 76.1074 136.19 72.6474 134.05 70.5174C131.91 68.3774 128.45 68.3774 126.32 70.5174L119.16 77.6774L91.68 105.157C83.7 113.137 70.7 113.647 62.49 105.907C53.96 97.8674 53.81 84.3774 62.04 76.1474L79.88 58.3074V42.8374L54.31 68.4074C41.94 80.7774 41.94 100.827 54.31 113.197C66.68 125.567 86.73 125.567 99.1 113.197Z" fill="#583B8F"/>
<path d="M48.97 20.2273L15.5 53.6873C18.33 56.5173 22.93 56.5173 25.76 53.6873L53.89 25.5573C57.52 21.9273 63.38 21.4473 67.33 24.7173C71.86 28.4673 72.1 35.2273 68.03 39.2873L51.02 56.2973C48.19 59.1273 48.19 63.7273 51.02 66.5573L73.16 44.4173C79.84 37.7373 79.84 26.9073 73.16 20.2273C66.48 13.5473 55.65 13.5473 48.97 20.2273Z" fill="#F8BE00"/>
<path d="M65.5099 27.8776C64.2799 26.6476 62.6699 26.0376 61.0699 26.0376C59.4699 26.0376 57.8499 26.6476 56.6299 27.8776L22.2099 62.2876C19.7599 64.7376 19.7599 68.7276 22.2099 71.1776C24.6599 73.6276 28.6499 73.6276 31.0999 71.1776L65.5099 36.7676C67.9599 34.3176 67.9599 30.3276 65.5099 27.8776Z" fill="#D9D9D9"/>
<path d="M65.5099 36.7676L31.0999 71.1776C28.6499 73.6276 24.6599 73.6276 22.2099 71.1776C19.7599 68.7276 19.7599 64.7376 22.2099 62.2876L56.6199 27.8776C57.8499 26.6476 59.4499 26.0376 61.0599 26.0376C62.6699 26.0376 64.2799 26.6476 65.4999 27.8776C67.9499 30.3276 67.9499 34.3176 65.4999 36.7676H65.5099Z" fill="#D9D9D9"/>
<path d="M115.89 51.6276C114.7 50.4376 113.12 49.7876 111.45 49.7876C109.78 49.7876 108.19 50.4376 107.01 51.6276L72.6 86.0376C71.41 87.2276 70.76 88.8076 70.76 90.4776C70.76 92.1476 71.41 93.7376 72.6 94.9176C74.98 97.2976 79.11 97.2976 81.49 94.9176L115.9 60.5076C118.35 58.0576 118.35 54.0676 115.9 51.6176L115.89 51.6276Z" fill="#D9D9D9"/>
<path d="M115.89 60.5174L81.48 94.9274C79.1 97.3074 74.97 97.3074 72.59 94.9274C71.4 93.7374 70.75 92.1574 70.75 90.4874C70.75 88.8174 71.4 87.2274 72.59 86.0474L107 51.6374C108.19 50.4474 109.77 49.7974 111.44 49.7974C113.11 49.7974 114.7 50.4474 115.88 51.6374C118.33 54.0874 118.33 58.0774 115.88 60.5274L115.89 60.5174Z" fill="#D9D9D9"/>
<path d="M69.4299 96.7476C66.1599 92.7976 66.6499 86.9376 70.2699 83.3076L87.0699 66.5076C89.8999 63.6776 89.8999 59.0776 87.0699 56.2476L64.9299 78.3876C58.2499 85.0676 58.2499 95.8976 64.9299 102.578C71.6099 109.258 82.4399 109.258 89.1199 102.578L122.59 69.1076C119.76 66.2776 115.16 66.2776 112.33 69.1076L83.9899 97.4476C79.9299 101.508 73.1699 101.278 69.4199 96.7476H69.4299Z" fill="#F8BE00"/>
<path d="M11.89 140.958C21.68 140.958 26.39 146.978 26.39 154.628C26.39 162.278 21.83 168.698 11.89 168.698H0V140.958H11.89ZM7.77 162.078H11.89C16.88 162.078 18.63 158.358 18.63 154.548C18.63 150.738 16.69 147.498 11.89 147.498H7.77V162.078Z" fill="#583B8F"/>
<path d="M56.31 140.997V156.487C56.35 164.687 51.36 169.287 43.23 169.287C35.1 169.287 30.15 164.887 30.15 156.407V140.987H37.96V156.407C37.96 160.767 40.06 162.587 43.23 162.587C46.4 162.587 48.5 160.687 48.5 156.487V140.997H56.31Z" fill="#583B8F"/>
<path d="M87.22 168.698H78.58L72.12 159.698H69.39V168.698H61.54V140.958H75.09C82.18 140.958 85.87 145.518 85.87 150.508C85.87 153.918 84.68 156.808 80 158.868L87.21 168.218V168.698H87.22ZM69.39 147.218V153.878H75.18C77.24 153.878 78.15 152.328 78.15 150.668C78.15 149.008 77.16 147.218 75.1 147.218H69.39Z" fill="#583B8F"/>
<path d="M112.94 168.698H90.75V140.958H112.39V147.538H98.48V151.498H111.6V157.878H98.48V162.078H112.94V168.698Z" fill="#583B8F"/>
<path d="M128.72 150.108L131.34 145.118L133.88 140.958H142.32V141.398L133.6 154.748L142.91 168.378V168.698H134.39L131.81 164.858L128.72 159.708L125.59 164.938L123.05 168.698H114.53V168.378L123.84 154.748L115.12 141.398V140.958H123.56L126.14 145.198L128.72 150.108Z" fill="#583B8F"/>
<path d="M34.06 202.537C30.93 205.627 27.13 206.857 22.92 206.857C12.02 206.857 7.77999 199.997 7.73999 192.477C7.69999 185.347 12.5 177.777 22.92 177.777C26.92 177.777 30.53 179.167 33.66 182.217L28.83 186.967C26.85 185.067 24.79 184.547 22.93 184.547C17.58 184.547 15.48 188.907 15.52 192.507C15.56 196.117 17.46 200.197 22.93 200.197C24.79 200.197 27.49 199.407 29.47 197.387L34.07 202.537H34.06Z" fill="#583B8F"/>
<path d="M62.95 206.137H54.31L47.85 197.137H45.12V206.137H37.27V178.397H50.82C57.91 178.397 61.6 182.957 61.6 187.947C61.6 191.357 60.41 194.247 55.74 196.307L62.95 205.657V206.137ZM45.12 184.667V191.327H50.91C52.97 191.327 53.88 189.777 53.88 188.117C53.88 186.457 52.89 184.667 50.83 184.667H45.12Z" fill="#583B8F"/>
<path d="M80.3499 206.817C71.2799 206.817 64.9399 201.547 64.9399 192.277C64.9399 183.007 71.2799 177.737 80.3499 177.737C89.4199 177.737 95.7699 183.047 95.7699 192.277C95.7699 201.507 89.4699 206.817 80.3499 206.817ZM80.3499 184.427C75.8699 184.427 72.7799 187.677 72.7799 192.277C72.7799 196.877 75.9099 200.127 80.3499 200.127C84.7899 200.127 87.9199 196.877 87.9199 192.277C87.9199 187.677 84.9499 184.427 80.3499 184.427Z" fill="#583B8F"/>
<path d="M123.03 189.618L115.94 198.018H114.55L107.61 189.658V206.148H99.84V178.408H108.04L115.33 187.798L122.62 178.408H130.78V206.148H123.01V189.628L123.03 189.618Z" fill="#583B8F"/>
</svg>
