<svg width="227" height="66" viewBox="0 0 227 66" fill="none" xmlns="http://www.w3.org/2000/svg">
<path d="M19.866 5.0049L0.864911 24.0006C-0.288304 25.1538 -0.288304 27.0184 0.864911 28.1662C2.01813 29.3194 3.88267 29.3194 5.0305 28.1662L9.05597 24.1407L23.8645 9.33215C28.1648 5.03184 35.1704 4.75701 39.5946 8.92799C44.1913 13.2606 44.2721 20.5302 39.8371 24.9652L30.2234 34.5789V42.9155L44.0027 29.1362C50.6687 22.4702 50.6687 11.6655 44.0027 4.99951C37.3367 -1.6665 26.532 -1.6665 19.866 4.99951V5.0049Z" fill="#583B8F"/>
<path d="M52.086 61.0005L70.9201 42.1664C72.0733 41.0132 72.0733 39.1487 70.9201 38.0008C69.7669 36.8476 67.9023 36.8476 66.7545 38.0008L62.8961 41.8592L48.0875 56.6678C43.7872 60.9681 36.7817 61.243 32.3574 57.072C27.7607 52.7393 27.6799 45.4698 32.1149 41.0347L41.7286 31.421V23.0845L27.9493 36.8638C21.2833 43.5298 21.2833 54.3344 27.9493 61.0005C34.6154 67.6665 45.42 67.6665 52.086 61.0005Z" fill="#583B8F"/>
<path d="M25.0717 10.9L7.03516 28.9311C8.5602 30.4562 11.0391 30.4562 12.5641 28.9311L27.723 13.7723C29.6791 11.8161 32.837 11.5575 34.9656 13.3196C37.4067 15.3404 37.5361 18.9833 35.3428 21.1712L26.1764 30.3376C24.6513 31.8627 24.6513 34.3415 26.1764 35.8666L38.1073 23.9357C41.707 20.3359 41.707 14.4998 38.1073 10.9C34.5075 7.30026 28.6714 7.30026 25.0717 10.9Z" fill="#F8BE00"/>
<path d="M33.9848 15.0228C33.322 14.36 32.4544 14.0312 31.5922 14.0312C30.73 14.0312 29.857 14.36 29.1995 15.0228L10.6511 33.5659C9.33082 34.8861 9.33082 37.0363 10.6511 38.3565C11.9714 39.6768 14.1215 39.6768 15.4418 38.3565L33.9848 19.8135C35.3051 18.4932 35.3051 16.3431 33.9848 15.0228Z" fill="#D9D9D9"/>
<path d="M33.9848 19.8135L15.4418 38.3565C14.1215 39.6768 11.9714 39.6768 10.6511 38.3565C9.33082 37.0363 9.33082 34.8861 10.6511 33.5659L29.1941 15.0228C29.857 14.36 30.7192 14.0312 31.5868 14.0312C32.4544 14.0312 33.322 14.36 33.9794 15.0228C35.2997 16.3431 35.2997 18.4932 33.9794 19.8135H33.9848Z" fill="#D9D9D9"/>
<path d="M61.134 27.8211C60.4927 27.1799 59.6413 26.8296 58.7413 26.8296C57.8414 26.8296 56.9846 27.1799 56.3487 27.8211L37.8056 46.3642C37.1644 47.0055 36.8141 47.8569 36.8141 48.7568C36.8141 49.6568 37.1644 50.5136 37.8056 51.1495C39.0882 52.432 41.3138 52.432 42.5963 51.1495L61.1394 32.6064C62.4596 31.2862 62.4596 29.136 61.1394 27.8158L61.134 27.8211Z" fill="#D9D9D9"/>
<path d="M61.1339 32.6118L42.5908 51.1549C41.3083 52.4374 39.0827 52.4374 37.8001 51.1549C37.1589 50.5136 36.8086 49.6622 36.8086 48.7622C36.8086 47.8623 37.1589 47.0054 37.8001 46.3696L56.3432 27.8265C56.9845 27.1852 57.8359 26.835 58.7358 26.835C59.6358 26.835 60.4926 27.1852 61.1285 27.8265C62.4488 29.1468 62.4488 31.2969 61.1285 32.6172L61.1339 32.6118Z" fill="#D9D9D9"/>
<path d="M36.0972 52.1359C34.3351 50.0073 34.5991 46.8494 36.5499 44.8933L45.6032 35.84C47.1282 34.315 47.1282 31.8361 45.6032 30.311L33.6722 42.242C30.0725 45.8417 30.0725 51.6778 33.6722 55.2776C37.272 58.8774 43.1081 58.8774 46.7079 55.2776L64.7444 37.2411C63.2193 35.7161 60.7404 35.7161 59.2154 37.2411L43.9434 52.5131C41.7555 54.701 38.1126 54.577 36.0918 52.1359H36.0972Z" fill="#F8BE00"/>
<path d="M95.675 0C105.465 0 110.175 6.02 110.175 13.67C110.175 21.32 105.615 27.74 95.675 27.74H83.785V0H95.675ZM91.555 21.12H95.675C100.665 21.12 102.415 17.4 102.415 13.59C102.415 9.78 100.475 6.54001 95.675 6.54001H91.555V21.12Z" fill="#583B8F"/>
<path d="M140.095 0.0397949V15.5298C140.135 23.7298 135.145 28.3298 127.015 28.3298C118.885 28.3298 113.935 23.9298 113.935 15.4498V0.0297852H121.745V15.4498C121.745 19.8098 123.845 21.6298 127.015 21.6298C130.185 21.6298 132.285 19.7298 132.285 15.5298V0.0397949H140.095Z" fill="#583B8F"/>
<path d="M171.005 27.74H162.365L155.905 18.74H153.175V27.74H145.325V0H158.875C165.965 0 169.655 4.56 169.655 9.55C169.655 12.96 168.465 15.85 163.785 17.91L170.995 27.26V27.74H171.005ZM153.175 6.26001V12.92H158.965C161.025 12.92 161.935 11.37 161.935 9.71001C161.935 8.05001 160.945 6.26001 158.885 6.26001H153.175Z" fill="#583B8F"/>
<path d="M196.725 27.74H174.535V0H196.175V6.58H182.265V10.54H195.385V16.92H182.265V21.12H196.725V27.74Z" fill="#583B8F"/>
<path d="M212.505 9.15001L215.125 4.16L217.665 0H226.105V0.440002L217.385 13.79L226.695 27.42V27.74H218.175L215.595 23.9L212.505 18.75L209.375 23.98L206.835 27.74H198.315V27.42L207.625 13.79L198.905 0.440002V0H207.345L209.925 4.24001L212.505 9.15001Z" fill="#583B8F"/>
<path d="M110.168 61.5798C107.038 64.6698 103.238 65.8998 99.0278 65.8998C88.1278 65.8998 83.8878 59.0398 83.8478 51.5198C83.8078 44.3898 88.6078 36.8198 99.0278 36.8198C103.028 36.8198 106.638 38.2098 109.768 41.2598L104.938 46.0098C102.958 44.1098 100.898 43.5898 99.0378 43.5898C93.6878 43.5898 91.5878 47.9498 91.6278 51.5498C91.6678 55.1598 93.5678 59.2398 99.0378 59.2398C100.898 59.2398 103.598 58.4498 105.578 56.4298L110.178 61.5798H110.168Z" fill="#583B8F"/>
<path d="M139.058 65.1799H130.418L123.958 56.1799H121.228V65.1799H113.378V37.4399H126.928C134.018 37.4399 137.708 41.9999 137.708 46.9899C137.708 50.3999 136.518 53.2899 131.848 55.3499L139.058 64.6999V65.1799ZM121.228 43.7099V50.3699H127.018C129.078 50.3699 129.988 48.8199 129.988 47.1599C129.988 45.4999 128.998 43.7099 126.938 43.7099H121.228Z" fill="#583B8F"/>
<path d="M156.458 65.8598C147.388 65.8598 141.048 60.5898 141.048 51.3198C141.048 42.0498 147.388 36.7798 156.458 36.7798C165.528 36.7798 171.878 42.0898 171.878 51.3198C171.878 60.5498 165.578 65.8598 156.458 65.8598ZM156.458 43.4698C151.978 43.4698 148.888 46.7198 148.888 51.3198C148.888 55.9198 152.018 59.1698 156.458 59.1698C160.898 59.1698 164.028 55.9198 164.028 51.3198C164.028 46.7198 161.058 43.4698 156.458 43.4698Z" fill="#583B8F"/>
<path d="M199.138 48.6602L192.048 57.0602H190.658L183.718 48.7002V65.1902H175.948V37.4502H184.148L191.438 46.8402L198.728 37.4502H206.888V65.1902H199.118V48.6702L199.138 48.6602Z" fill="#583B8F"/>
</svg>
